#define center_width 13
#define center_height 13
static unsigned char center_bits[] = {
   0xf0, 0x01, 0xf8, 0x03, 0x1c, 0x07, 0x06, 0x0c, 0x47, 0x1c, 0xe3, 0x18,
   0xf3, 0x19, 0xe3, 0x18, 0x47, 0x1c, 0x06, 0x0c, 0x1c, 0x07, 0xf8, 0x03,
   0xf0, 0x01};
